<mxfile host="app.diagrams.net" agent="Mozilla/5.0 (Windows NT 10.0; Win64; x64) AppleWebKit/537.36 (KHTML, like Gecko) Chrome/130.0.0.0 Safari/537.36 Edg/130.0.0.0" version="24.8.6">
  <diagram name="Page-1" id="miyBdzJv_17BdFc2x7O9">
    <mxGraphModel dx="232" dy="-222" grid="1" gridSize="10" guides="1" tooltips="1" connect="1" arrows="1" fold="1" page="1" pageScale="1" pageWidth="827" pageHeight="1169" math="0" shadow="0">
      <root>
        <mxCell id="0" />
        <mxCell id="1" parent="0" />
        <mxCell id="N9aoY3EiyxtWl6eItshk-1" value="Сервис по доставке еды - Самокат" style="shape=umlFrame;whiteSpace=wrap;html=1;pointerEvents=0;width=170;height=30;" vertex="1" parent="1">
          <mxGeometry x="840" y="1200" width="640" height="660" as="geometry" />
        </mxCell>
        <mxCell id="N9aoY3EiyxtWl6eItshk-2" value="Изучить&lt;br&gt;&amp;nbsp;ассортимент" style="ellipse;whiteSpace=wrap;html=1;" vertex="1" parent="1">
          <mxGeometry x="850" y="1320" width="125" height="70" as="geometry" />
        </mxCell>
        <mxCell id="N9aoY3EiyxtWl6eItshk-3" value="Сделать заказ" style="ellipse;whiteSpace=wrap;html=1;" vertex="1" parent="1">
          <mxGeometry x="850" y="1600" width="140" height="70" as="geometry" />
        </mxCell>
        <mxCell id="N9aoY3EiyxtWl6eItshk-4" value="Добавить товар&lt;div&gt;(в меню оплаты)&lt;/div&gt;" style="ellipse;whiteSpace=wrap;html=1;" vertex="1" parent="1">
          <mxGeometry x="1070" y="1600" width="140" height="70" as="geometry" />
        </mxCell>
        <mxCell id="N9aoY3EiyxtWl6eItshk-5" value="&quot;extend&quot;" style="html=1;verticalAlign=bottom;endArrow=open;dashed=1;endSize=8;curved=0;rounded=0;exitX=0;exitY=0.5;exitDx=0;exitDy=0;entryX=1;entryY=0.5;entryDx=0;entryDy=0;" edge="1" parent="1" source="N9aoY3EiyxtWl6eItshk-4" target="N9aoY3EiyxtWl6eItshk-3">
          <mxGeometry x="-0.0151" y="-5" relative="1" as="geometry">
            <mxPoint x="1342.5" y="1650" as="sourcePoint" />
            <mxPoint x="1240" y="1670" as="targetPoint" />
            <mxPoint y="1" as="offset" />
          </mxGeometry>
        </mxCell>
        <mxCell id="N9aoY3EiyxtWl6eItshk-6" value="&lt;span style=&quot;font-style: normal;&quot;&gt;Оплатить заказ&lt;/span&gt;" style="ellipse;whiteSpace=wrap;html=1;fontStyle=2" vertex="1" parent="1">
          <mxGeometry x="1070" y="1710" width="140" height="70" as="geometry" />
        </mxCell>
        <mxCell id="N9aoY3EiyxtWl6eItshk-7" value="&quot;include&quot;" style="html=1;verticalAlign=bottom;endArrow=open;dashed=1;endSize=8;curved=0;rounded=0;entryX=0;entryY=0.5;entryDx=0;entryDy=0;exitX=1;exitY=1;exitDx=0;exitDy=0;" edge="1" parent="1" source="N9aoY3EiyxtWl6eItshk-3" target="N9aoY3EiyxtWl6eItshk-6">
          <mxGeometry relative="1" as="geometry">
            <mxPoint x="1130" y="1670" as="sourcePoint" />
            <mxPoint x="1050" y="1670" as="targetPoint" />
          </mxGeometry>
        </mxCell>
        <mxCell id="N9aoY3EiyxtWl6eItshk-8" value="" style="html=1;verticalAlign=bottom;endArrow=block;curved=0;rounded=0;endFill=0;endSize=12;entryX=1;entryY=0.5;entryDx=0;entryDy=0;" edge="1" parent="1" target="N9aoY3EiyxtWl6eItshk-6">
          <mxGeometry width="80" relative="1" as="geometry">
            <mxPoint x="1260" y="1745" as="sourcePoint" />
            <mxPoint x="1030" y="1774.5" as="targetPoint" />
          </mxGeometry>
        </mxCell>
        <mxCell id="N9aoY3EiyxtWl6eItshk-9" value="Воспользоваться бонусами" style="ellipse;whiteSpace=wrap;html=1;" vertex="1" parent="1">
          <mxGeometry x="1070" y="1505" width="140" height="70" as="geometry" />
        </mxCell>
        <mxCell id="N9aoY3EiyxtWl6eItshk-10" value="&quot;extend&quot;" style="html=1;verticalAlign=bottom;endArrow=open;dashed=1;endSize=8;curved=0;rounded=0;exitX=0;exitY=0.5;exitDx=0;exitDy=0;entryX=1;entryY=0;entryDx=0;entryDy=0;" edge="1" parent="1" source="N9aoY3EiyxtWl6eItshk-9" target="N9aoY3EiyxtWl6eItshk-3">
          <mxGeometry x="-0.0151" y="-5" relative="1" as="geometry">
            <mxPoint x="1150" y="1570" as="sourcePoint" />
            <mxPoint x="1053" y="1570" as="targetPoint" />
            <mxPoint y="1" as="offset" />
          </mxGeometry>
        </mxCell>
        <mxCell id="N9aoY3EiyxtWl6eItshk-11" value="Искать продукт" style="ellipse;whiteSpace=wrap;html=1;" vertex="1" parent="1">
          <mxGeometry x="1070" y="1230" width="140" height="70" as="geometry" />
        </mxCell>
        <mxCell id="N9aoY3EiyxtWl6eItshk-12" value="&quot;extend&quot;" style="html=1;verticalAlign=bottom;endArrow=open;dashed=1;endSize=8;curved=0;rounded=0;entryX=1;entryY=0;entryDx=0;entryDy=0;exitX=0;exitY=0.5;exitDx=0;exitDy=0;" edge="1" parent="1" source="N9aoY3EiyxtWl6eItshk-11" target="N9aoY3EiyxtWl6eItshk-2">
          <mxGeometry relative="1" as="geometry">
            <mxPoint x="1112.5" y="1244.5" as="sourcePoint" />
            <mxPoint x="1037.5" y="1244.5" as="targetPoint" />
          </mxGeometry>
        </mxCell>
        <mxCell id="N9aoY3EiyxtWl6eItshk-13" value="Выбрать&lt;div&gt;&amp;nbsp;категорию/сортировку&lt;/div&gt;" style="ellipse;whiteSpace=wrap;html=1;" vertex="1" parent="1">
          <mxGeometry x="1070" y="1320" width="140" height="70" as="geometry" />
        </mxCell>
        <mxCell id="N9aoY3EiyxtWl6eItshk-14" value="&quot;extend&quot;" style="html=1;verticalAlign=bottom;endArrow=open;dashed=1;endSize=8;curved=0;rounded=0;entryX=1;entryY=0.5;entryDx=0;entryDy=0;exitX=0;exitY=0.5;exitDx=0;exitDy=0;" edge="1" parent="1" source="N9aoY3EiyxtWl6eItshk-13" target="N9aoY3EiyxtWl6eItshk-2">
          <mxGeometry relative="1" as="geometry">
            <mxPoint x="1097.5" y="1420" as="sourcePoint" />
            <mxPoint x="1022.5" y="1420" as="targetPoint" />
          </mxGeometry>
        </mxCell>
        <mxCell id="N9aoY3EiyxtWl6eItshk-15" value="Оплатить банковской картой" style="ellipse;whiteSpace=wrap;html=1;" vertex="1" parent="1">
          <mxGeometry x="1310" y="1669" width="140" height="70" as="geometry" />
        </mxCell>
        <mxCell id="N9aoY3EiyxtWl6eItshk-16" style="edgeStyle=orthogonalEdgeStyle;rounded=0;orthogonalLoop=1;jettySize=auto;html=1;entryX=0;entryY=0.5;entryDx=0;entryDy=0;endArrow=none;endFill=0;exitX=0;exitY=0.5;exitDx=0;exitDy=0;" edge="1" parent="1" source="N9aoY3EiyxtWl6eItshk-23" target="N9aoY3EiyxtWl6eItshk-15">
          <mxGeometry relative="1" as="geometry">
            <mxPoint x="1770" y="1810" as="sourcePoint" />
            <Array as="points">
              <mxPoint x="1260" y="1800" />
              <mxPoint x="1260" y="1705" />
            </Array>
          </mxGeometry>
        </mxCell>
        <mxCell id="N9aoY3EiyxtWl6eItshk-17" value="Применить СберСпасибо" style="ellipse;whiteSpace=wrap;html=1;" vertex="1" parent="1">
          <mxGeometry x="1310" y="1575" width="140" height="70" as="geometry" />
        </mxCell>
        <mxCell id="N9aoY3EiyxtWl6eItshk-18" value="Указать адрес" style="ellipse;whiteSpace=wrap;html=1;" vertex="1" parent="1">
          <mxGeometry x="1070" y="1410" width="140" height="70" as="geometry" />
        </mxCell>
        <mxCell id="N9aoY3EiyxtWl6eItshk-19" value="&quot;include&quot;" style="html=1;verticalAlign=bottom;endArrow=open;dashed=1;endSize=8;curved=0;rounded=0;entryX=0;entryY=0.5;entryDx=0;entryDy=0;exitX=1;exitY=1;exitDx=0;exitDy=0;" edge="1" parent="1" source="N9aoY3EiyxtWl6eItshk-2" target="N9aoY3EiyxtWl6eItshk-18">
          <mxGeometry relative="1" as="geometry">
            <mxPoint x="1044.5" y="1430" as="sourcePoint" />
            <mxPoint x="942.5" y="1368" as="targetPoint" />
          </mxGeometry>
        </mxCell>
        <mxCell id="N9aoY3EiyxtWl6eItshk-20" value="Применить промокод" style="ellipse;whiteSpace=wrap;html=1;" vertex="1" parent="1">
          <mxGeometry x="1310" y="1435" width="140" height="80" as="geometry" />
        </mxCell>
        <mxCell id="N9aoY3EiyxtWl6eItshk-21" value="" style="endArrow=block;endSize=16;endFill=0;html=1;rounded=0;entryX=1;entryY=0.5;entryDx=0;entryDy=0;" edge="1" parent="1" target="N9aoY3EiyxtWl6eItshk-9">
          <mxGeometry width="160" relative="1" as="geometry">
            <mxPoint x="1270" y="1540" as="sourcePoint" />
            <mxPoint x="1320" y="1590" as="targetPoint" />
          </mxGeometry>
        </mxCell>
        <mxCell id="N9aoY3EiyxtWl6eItshk-22" value="" style="endArrow=none;html=1;edgeStyle=orthogonalEdgeStyle;rounded=0;exitX=0;exitY=0.5;exitDx=0;exitDy=0;entryX=0;entryY=0.5;entryDx=0;entryDy=0;" edge="1" parent="1" source="N9aoY3EiyxtWl6eItshk-20" target="N9aoY3EiyxtWl6eItshk-17">
          <mxGeometry relative="1" as="geometry">
            <mxPoint x="1060" y="1625" as="sourcePoint" />
            <mxPoint x="1220" y="1625" as="targetPoint" />
            <Array as="points">
              <mxPoint x="1270" y="1475" />
              <mxPoint x="1270" y="1610" />
            </Array>
          </mxGeometry>
        </mxCell>
        <mxCell id="N9aoY3EiyxtWl6eItshk-23" value="Оплатить по СБП" style="ellipse;whiteSpace=wrap;html=1;" vertex="1" parent="1">
          <mxGeometry x="1310" y="1769" width="140" height="70" as="geometry" />
        </mxCell>
      </root>
    </mxGraphModel>
  </diagram>
</mxfile>
